<svg width="543" height="102" viewBox="0 0 543 102" fill="none" xmlns="http://www.w3.org/2000/svg">
<path d="M5 5L32.293 5L61.9941 5" stroke="#6C584C" stroke-width="10" stroke-linecap="round"/>
<path d="M33.3174 68L33.1654 40.019L33 9.56905" stroke="#6C584C" stroke-width="10" stroke-linecap="round"/>
<path d="M85.9941 5L87.0525 51.771C87.2693 61.3487 95.0957 69 104.676 69H110.366C120.102 69 127.994 61.1078 127.994 51.3722V5" stroke="#6C584C" stroke-width="10" stroke-linecap="round"/>
<path d="M151.994 68.104V13.1262C151.994 8.6382 155.632 5 160.12 5C163.863 5 167.121 7.55577 168.013 11.1903L172.994 31.5C176.093 42.1225 190.963 42.602 194.74 32.2011L194.994 31.5L199.53 10.8854C200.286 7.44825 203.331 5 206.851 5C210.991 5 214.347 8.35613 214.347 12.4961V68.104" stroke="#6C584C" stroke-width="10" stroke-linecap="round"/>
<path d="M238.347 70V38.5714M238.347 38.5714V21.5C238.347 12.3873 245.734 5 254.847 5C263.959 5 271.347 12.5289 271.347 21.6416C271.347 30.9121 263.831 38.5714 254.561 38.5714H238.347Z" stroke="#6C584C" stroke-width="10" stroke-linecap="round"/>
<path d="M295.347 5L296.411 52.7649C296.624 62.345 304.452 70 314.034 70H319.719C329.454 70 337.347 62.1078 337.347 52.3722V5" stroke="#6C584C" stroke-width="10" stroke-linecap="round"/>
<path d="M361.347 5V69.5M398.675 69.5L380.324 52C373.311 44.1311 372.687 31.2649 380.324 24L398.675 5" stroke="#6C584C" stroke-width="10" stroke-linecap="round"/>
<path d="M463.047 47.1647L452.606 10.0554C451.765 7.0656 449.038 5 445.932 5C442.826 5 440.099 7.06561 439.258 10.0554L428.818 47.1647L422.675 69M469.675 69L463.047 47.1647M463.047 47.1647H428.818" stroke="#6C584C" stroke-width="10" stroke-linecap="round"/>
<path d="M493.675 69.5015V11.5162C493.675 7.91739 496.592 5 500.191 5C503.133 5 505.71 6.97091 506.48 9.80994L521.673 65.8074C522.264 67.9878 524.243 69.5015 526.502 69.5015C529.266 69.5015 531.507 67.2609 531.507 64.4971V5" stroke="#6C584C" stroke-width="10" stroke-linecap="round"/>
<line x1="8" y1="99" x2="539.016" y2="99" stroke="#6C584C" stroke-width="6" stroke-linecap="round" stroke-dasharray="268.51 268.51"/>
</svg>
